<?xml version="1.0" encoding="UTF-8" standalone="no"?>
<!DOCTYPE svg PUBLIC "-//W3C//DTD SVG 1.1//EN"
 "http://www.w3.org/Graphics/SVG/1.1/DTD/svg11.dtd">
<!-- Generated by graphviz version 2.40.1 (20161225.0304)
 -->
<!-- Title: G Pages: 1 -->
<svg width="237pt" height="638pt"
 viewBox="0.00 0.00 237.45 638.00" xmlns="http://www.w3.org/2000/svg" xmlns:xlink="http://www.w3.org/1999/xlink">
<g id="graph0" class="graph" transform="scale(1 1) rotate(0) translate(4 634)">
<title>G</title>
<polygon fill="#ffffff" stroke="transparent" points="-4,4 -4,-634 233.4454,-634 233.4454,4 -4,4"/>
<!-- data.aws_ami.amazon_linux_latest -->
<g id="node1" class="node">
<title>data.aws_ami.amazon_linux_latest</title>
<polygon fill="none" stroke="#000000" points="220.6653,-36 8.7801,-36 8.7801,0 220.6653,0 220.6653,-36"/>
<text text-anchor="middle" x="114.7227" y="-13.8" font-family="sans-serif" font-size="14.00" fill="#000000">data.aws_ami.amazon_linux_latest</text>
</g>
<!-- data.aws_iam_user.user&#45;iroshan -->
<g id="node2" class="node">
<title>data.aws_iam_user.user&#45;iroshan</title>
<polygon fill="none" stroke="#000000" points="212.3151,-90 17.1303,-90 17.1303,-54 212.3151,-54 212.3151,-90"/>
<text text-anchor="middle" x="114.7227" y="-67.8" font-family="sans-serif" font-size="14.00" fill="#000000">data.aws_iam_user.user&#45;iroshan</text>
</g>
<!-- data.aws_vpc.default -->
<g id="node3" class="node">
<title>data.aws_vpc.default</title>
<polygon fill="none" stroke="#000000" points="181.894,-144 47.5514,-144 47.5514,-108 181.894,-108 181.894,-144"/>
<text text-anchor="middle" x="114.7227" y="-121.8" font-family="sans-serif" font-size="14.00" fill="#000000">data.aws_vpc.default</text>
</g>
<!-- data.local_file.test -->
<g id="node4" class="node">
<title>data.local_file.test</title>
<polygon fill="none" stroke="#000000" points="173.8503,-198 55.5951,-198 55.5951,-162 173.8503,-162 173.8503,-198"/>
<text text-anchor="middle" x="114.7227" y="-175.8" font-family="sans-serif" font-size="14.00" fill="#000000">data.local_file.test</text>
</g>
<!-- aws_iam_user.dev&#45;user&#45;id -->
<g id="node5" class="node">
<title>aws_iam_user.dev&#45;user&#45;id</title>
<polygon fill="none" stroke="#000000" points="196.5506,-252 32.8948,-252 32.8948,-216 196.5506,-216 196.5506,-252"/>
<text text-anchor="middle" x="114.7227" y="-229.8" font-family="sans-serif" font-size="14.00" fill="#000000">aws_iam_user.dev&#45;user&#45;id</text>
</g>
<!-- aws_iam_user.dev&#45;user&#45;name -->
<g id="node6" class="node">
<title>aws_iam_user.dev&#45;user&#45;name</title>
<polygon fill="none" stroke="#000000" points="205.9797,-306 23.4657,-306 23.4657,-270 205.9797,-270 205.9797,-306"/>
<text text-anchor="middle" x="114.7227" y="-283.8" font-family="sans-serif" font-size="14.00" fill="#000000">aws_iam_user.dev&#45;user&#45;name</text>
</g>
<!-- aws_iam_user.payments&#45;user -->
<g id="node7" class="node">
<title>aws_iam_user.payments&#45;user</title>
<polygon fill="none" stroke="#000000" points="205.4396,-360 24.0058,-360 24.0058,-324 205.4396,-324 205.4396,-360"/>
<text text-anchor="middle" x="114.7227" y="-337.8" font-family="sans-serif" font-size="14.00" fill="#000000">aws_iam_user.payments&#45;user</text>
</g>
<!-- aws_iam_user_policy.dev&#45;user -->
<g id="node8" class="node">
<title>aws_iam_user_policy.dev&#45;user</title>
<polygon fill="none" stroke="#000000" points="209.495,-414 19.9504,-414 19.9504,-378 209.495,-378 209.495,-414"/>
<text text-anchor="middle" x="114.7227" y="-391.8" font-family="sans-serif" font-size="14.00" fill="#000000">aws_iam_user_policy.dev&#45;user</text>
</g>
<!-- aws_iam_user_policy.dev&#45;user&#45;2 -->
<g id="node9" class="node">
<title>aws_iam_user_policy.dev&#45;user&#45;2</title>
<polygon fill="none" stroke="#000000" points="215.656,-468 13.7894,-468 13.7894,-432 215.656,-432 215.656,-468"/>
<text text-anchor="middle" x="114.7227" y="-445.8" font-family="sans-serif" font-size="14.00" fill="#000000">aws_iam_user_policy.dev&#45;user&#45;2</text>
</g>
<!-- aws_security_group.rules_within_vpc -->
<g id="node10" class="node">
<title>aws_security_group.rules_within_vpc</title>
<polygon fill="none" stroke="#000000" points="229.6685,-522 -.2231,-522 -.2231,-486 229.6685,-486 229.6685,-522"/>
<text text-anchor="middle" x="114.7227" y="-499.8" font-family="sans-serif" font-size="14.00" fill="#000000">aws_security_group.rules_within_vpc</text>
</g>
<!-- aws_security_group.terraform&#45;sg -->
<g id="node11" class="node">
<title>aws_security_group.terraform&#45;sg</title>
<polygon fill="none" stroke="#000000" points="215.9228,-576 13.5226,-576 13.5226,-540 215.9228,-540 215.9228,-576"/>
<text text-anchor="middle" x="114.7227" y="-553.8" font-family="sans-serif" font-size="14.00" fill="#000000">aws_security_group.terraform&#45;sg</text>
</g>
<!-- local_file.file_text -->
<g id="node12" class="node">
<title>local_file.file_text</title>
<polygon fill="none" stroke="#000000" points="174.2417,-630 55.2037,-630 55.2037,-594 174.2417,-594 174.2417,-630"/>
<text text-anchor="middle" x="114.7227" y="-607.8" font-family="sans-serif" font-size="14.00" fill="#000000">local_file.file_text</text>
</g>
</g>
</svg>